<svg xmlns="http://www.w3.org/2000/svg" viewBox="0 0 290.93 266.18"><title>toolbox</title><g id="Layer_2" data-name="Layer 2"><g id="Layer_1-2" data-name="Layer 1"><path d="M82.69,33.14a13.63,13.63,0,0,1-3.52-1.68c-2.52-2.29-1.94-4.9,1.28-6.06q14-5,28.08-9.91c3.46-1.21,6.7,1.35,5.15,4.41-1.18,2.33-.39,3.83.2,5.51,5.62,16.1,11.41,32.14,17,48.26,1,2.94,2.42,4.13,5.67,4.08,11.79-.22,23.58-.1,35.38-.13,3.3,0,6.12-.42,3.32-4.77-1-1.52-.59-3.13-.13-4.79,3.38-12.28,6.08-24.74,14.67-34.93,4-4.73,5.88-10.69,6.65-16.94.6-4.83,2.72-9.14,5-13.41,1.48-2.8,3.77-3,6.31-2.66,3,.38,1.7,2.86,1.7,4.34,0,4.27,2.23,6.06,6.14,6.16a70.44,70.44,0,0,1,28.87,6.52,9.2,9.2,0,0,0,7.27.37c3.91-1.43,3.83.84,3.42,3.51a2.9,2.9,0,0,1-.34.93C246.28,37,243.5,54.47,234.94,69.53c-2.36,4.15-4.21,8.59-6.3,12.9,4.08,1.63,6.76.45,9.49-3s7.13-5.63,12.53-7c-2.32,4.56-4.65,8.11-5.71,12.28-.52,2.09-.11,3.12,1.76,3.83,2.17.82,4.33,1.68,6.49,2.52,8.41,3.25,9.23,2.91,12.6-5.4.62-1.52,1.12-3.09,1.94-5.4,3.15,5,4.91,10.47,2.87,14.8-1.3,2.75-1.9,6.38-4.41,8.58-3.3,2.89-2.56,6.4-1.73,9.85.68,2.86.4,6,2.08,9a243.62,243.62,0,0,0,17.55-19.63,8,8,0,0,1,3.22-2.92,2.31,2.31,0,0,1,3.07.69,1.65,1.65,0,0,1-.17,2.58c-1.26,1.09-1.21,3-2.79,4-7.67,4.71-12.24,12.51-18.5,18.64-1.83,1.8-1.86,3.73-1.49,5.91q3.39,20.1,6.79,40.19c.19,1.12,0,3,1.15,3,5.24.3,3.73,4.17,3.63,6.88-.3,7.58-.33,15.21-.45,22.76-.12,7.16.35,14.49.46,21.74.18,11.36-.14,22.72.14,34.06.11,4.46-1.1,5.82-5.77,5.81q-113.62-.23-227.26-.11c-9.8,0-19.6-.12-29.4.07-3.1.06-4-.91-3.93-3.94.2-6.63,0-13.28.09-19.92,0-1.53-.61-3.32,1.45-4.34,1-.49.82-1.62.48-2.63A45.75,45.75,0,0,1,14.77,206a2.74,2.74,0,0,0,.18-1.88c-4.83-8.51-.91-17.68-2-26.46-.21-1.61.56-2.53,2.28-2.35,3,.31,3.44-1.46,3.83-3.91,2.44-15.21,5-30.4,7.6-45.59.9-5.32-.34-6.68-5.53-6.12-1.3.14-2.71-.44-4-.15-2.24.53-4.89,1.34-3,4.53s-.74,4-2.42,5.43c-1.94,1.58-3.79,1.13-5.18-.71C4.09,125.58.39,123.13,0,118.6c.41-5.55.46-5.61,5.9-3.47a1.55,1.55,0,0,0,1.76-.27c2.4-2,7-2,6.38-6.92-.18-1.47,1.3-2.61,2.42-3.59,6.19-5.39,13-9.33,21.27-11,4.87-1,9.79-.19,15.47-1.1-8.76-2.32-16.2,0-23.64,2.1,5.14-5.2,3.75-12.29,5.2-18.52C36.29,69.27,37.08,62.51,38,55.8c.39-2.8,1.57-4,4.53-3.82A79.07,79.07,0,0,0,53,52c3.16-.2,4,1.15,3.87,4.07C56.71,62,57,68,56.8,73.94c-.08,2.74.69,3.82,3.6,3.78,10.78-.13,21.56-.1,32.33,0,2.86,0,3.33-.83,2.4-3.51-3.78-10.93-7.31-21.94-11-32.89a26,26,0,0,1-1.56-8.22c-1.08-4.94,1.62-6.76,5.94-7.85A102.4,102.4,0,0,0,101.12,21c4.4-1.75,8.51-3.37,9.75,3.69,1.53-1.79-1.15-3.33.39-4.46s1.32-2.13.41-3.31c-1.21-1.6-2.5-.13-3.54.22-7.35,2.45-14.64,5.08-21.94,7.67-2.32.83-5.58,1.08-6.69,2.74C77.87,30,82.42,30.7,82.69,33.14Zm21.74,127.45c-1.68-2-3.69-3.29-6.42-2.51-2.9.83-2.09,3.32-2.25,5.36-2.8-2.67-.2-6.23-1.76-9.4-3.78-7.69-7.19-15.48-13-22-7.18-8-8.69-18.77-12.89-28.22a2,2,0,0,1,.67-2.65c.78-.5,1.68-.58,2.13.32,2.89,5.89,9.42,10,8.7,17.68a5.18,5.18,0,0,0,4.23,5.93c2.69.51,3.81,2.17,5.17,4.06.88,1.22,1.14,3.27,3.21,3.28a1.36,1.36,0,0,0,.54-1.79c-1.7-3.52-3.49-6.81-1.51-11.08.83-1.79-.72-4.56-3-5.1-3.71-.87-4.59-3.82-5.91-6.57-1.44-3-3-5.91-4.24-9a3.49,3.49,0,0,0-3.72-2.53c-4.48.12-9,.19-13.43.16-3.17,0-4.23,1.32-4.17,4.56.21,9.6.78,19.29-.12,28.81-1,10.35,3.76,17.95,9.39,25.53,1.34,3.39-.33,5.27-3.1,7-2.07,1.29-4.87,2.53-3.75,6,3.1-4.65,6.93-8.13,12.64-9,3.07,3.14,6.7,5.8,8.87,9.69,2.84,5.1,6.9,6.7,12.69,6.24,6.78-.55,6.8-.13,4.77-6.34-.41-1.25-.63-2.56-.93-3.84,1.13-5.76,1.13-5.75,7-4.41.08,0,.22-.21.34-.32,1.37,2.9,2.81,5.78,4.11,8.72,3,6.84,4.16,7.37,12.17,5.11-5.78-8.24-12.56-15.68-16.73-24.84-.56-1.24-1.44-2.76-3.44-1.55s-.86,2.52-.62,3.91C100.63,155.25,103.51,157.42,104.43,160.59Zm13-6.74a5.57,5.57,0,0,1-1.75-.84c-1.69-1.77-3.48-2.79-5.44-.57s-1.81,4.46.88,6.4c-.07-2.09-1.76-4.49.68-5.86,2.12-1.19,3,1.37,4.48,2.16a5.21,5.21,0,0,0,1.44.32c.41,2.57,2.46,4.19,3.71,6.27.5.83,1.46,1.67,2.49,1.24,1.29-.52.57-1.6.27-2.5q-10.38-30.81-20.74-61.63c-.43-1.27-1-2.4-2.71-2.39-6.17,0-12.35,0-19.57,0,3.17,4.09,5.46,7.32,8,10.3A50.11,50.11,0,0,1,100,126.64c2,7.3,6,13.82,10.26,20.08C112.2,149.58,116.52,150,117.42,153.85Zm29.27,84.35h123c1.17,0,2.33,0,3.49,0s2.88.14,2.77-1.88-1.7-1.68-3-1.76c-.83,0-1.66,0-2.49,0h-241c-2.65,0-5.31-.08-7.95.06-1.63.08-4.21-.88-4.19,2,0,2.67,2.47,1.35,3.88,1.59a20.18,20.18,0,0,0,3.48,0Zm8.77-92.51,1,.19c4.35-15.43,8.67-30.87,13.08-46.29.71-2.49-.09-3.19-2.54-3.17q-14.19.15-28.38,0c-3,0-3.75.89-2.72,3.74,1.87,5.12,3.49,10.33,5.29,15.48.41,1.16.45,3.25,2.11,2.91,3.39-.69,3.42,1.87,4.07,3.71C150.14,130.07,152.78,137.89,155.46,145.69Zm-9.36,61q61.8,0,123.58-.08c2.11,0,6,1.62,6-1.86,0-3-3.78-1.55-5.79-1.55q-82.71-.15-165.43-.08-41.59,0-83.18,0c-1.46,0-3.85-.89-4,1.6s2.24,1.74,3.74,1.89a29.59,29.59,0,0,0,3,0ZM212.74,24.1c-3,.3-5.85.55-8.65.88-4.05.47-6.15,2.94-6.72,6.83-.84,5.75,2.65,9.65,9.59,9.89a67.82,67.82,0,0,1,19,3.14,15.25,15.25,0,0,0,6.88.64c4.31-.59,7.64-2.4,8.35-7.12.67-4.5-1.78-7.46-5.58-8.95A78.28,78.28,0,0,0,212.74,24.1Zm-25.1,140.39c9.3-9.66,14.59-22.28,25.21-31.26,6-5,9.27-13.2,14-19.79,3.38-4.7,3.14-9.5,1.47-14.63a3,3,0,0,0-3.22-2.36c-2.15-.08-3.72.2-4.82,2.43Q204,131.73,187.64,164.49Zm14.85,10.68c2.17,0,3,.27,3.42,0,6.48-5.34,13.66-10,18.35-17.15,1.82-2.77,3.16-3.26,5.91-1.74,4.3,2.37,6.07,1.25,6.15-3.8s0-10.28,0-15.42V123C223,139.12,215.17,158.06,202.49,175.17ZM82.86,241.5a971.92,971.92,0,0,0,110.09,0ZM193,178.72H82.08C119.07,181.37,156.05,180,193,178.72ZM229.54,75.49l.61,0c1.38-2.63,2.82-5.23,4.09-7.92.5-1.08,1.92-2.27.71-3.53-.86-.88-2.25-.4-3.34-.12-16.23,4.12-32.85,6.25-49.18,9.84-2.65.59-2.66.54-3.64,2.54,17.51-3.07,35.41-5.78,53.69-10.08-.78,2.3-1.28,3.68-1.72,5.07S229.94,74.1,229.54,75.49ZM109.32,49.93c-5.41-.18-10.53,3.55-11.86,8.39-.25.91-.88,1.93,0,2.76s1.87,0,2.72-.31c3.76-1.19,7.53-2.38,11.2-3.79,2.05-.79,5.86-.8,5.67-2.76-.27-2.9-3.94-3.42-6.62-4.19A4,4,0,0,0,109.32,49.93ZM99.24,68.53c3.8,4.07,7.55,5.49,12.13,4.38a11.25,11.25,0,0,0,8.56-8.1c.79-2.52.29-3.53-2.49-2.56C111.69,64.26,105.92,66.23,99.24,68.53Zm35,81.53a6.63,6.63,0,0,0,1.14.93c4.56,2.32,9.11,4.67,13.73,6.87,1,.49,2.16,2,3.45.77s1-2.61.52-4.17C150.48,146.39,140.88,144,134.27,150.06Zm104.58,111.2c0,.55.05,1.1.08,1.65,11,0,21.92-.07,32.88,0,3,0,4.19-1,4.07-4-.17-4.48-.22-9,0-13.44.16-3.16-1.09-4-4.06-3.95-5.73.17-11.46.05-17.18.05,2.24.67,4.54.85,6.79,1.31,4.11.86,9.84-1.92,12.06,1.73,1.93,3.18.38,8.39.65,12.69.19,3.05-.91,4-3.94,4C259.76,261.17,249.3,261.26,238.85,261.26Zm-96.07-91.45c.84-.23,2.61-.6,4.29-1.21,1-.37,2.49-.79,2.23-2.16-.14-.7-1.32-1.32-2.15-1.74-4.55-2.3-9.16-4.47-13.7-6.79-2.46-1.26-3.21-.6-2.95,2.06C131,165.13,136.18,169.69,142.78,169.81ZM250.76,26c1.18-1.74,2.82-3.59,1.83-5.35-.85-1.51-3.08-.13-4.68-.27a13.82,13.82,0,0,1-4.37-.82c-8.29-3.63-16.95-5.32-25.94-6.18s-9-1.27-10.36-10.38c0-.2-.43-.35-.83-.64A9.81,9.81,0,0,0,201.6,8.7c1.82-1,2-3.25,4-3.32,2.64,9.05,2.64,9.06,12.73,9.59,1.66.09,3.95-.17,4.57,1.31,1.07,2.58.68,1.22,2.14.14,4-3,7.19,3.54,11.7,1.83,1-.4,3.83.77,4.31,2.61.39,1.53-.53,2.31,1.73.88C246.46,19.42,251.09,22.1,250.76,26Zm-4.91,173.69c8.61,0,17.23-.12,25.85.06,3.3.07,4.36-1.13,4.2-4.33-.21-4.46-.06-8.94-.06-13.41,0-1.73,0-3.48-2.43-3.49-6.52,0-13,0-19.55,0a32.56,32.56,0,0,0,7.45,1.05c13.31,1.06,13.19,1.07,12.83,14.71-.09,3.32-1.17,4.16-4.34,4.16C261.87,198.41,253.91,198.21,245.85,199.69ZM59.58,262.9v-1.41c-9.62,0-19.23.18-28.84-.09-4-.11-9.71,1.77-11.75-1.3s-.47-8.31-.81-12.58c-.3-3.65,1.37-4.53,4.63-4.48,4.91.08,9.86.24,15.25-1.41-6.45,0-12.25,0-18.06,0-2.14,0-3.41.47-3.33,3,.15,5,.14,10,0,14.93-.09,2.78,1.32,3.34,3.67,3.34C33.42,262.88,46.5,262.9,59.58,262.9Zm24.53-52.51c34.9,1.66,70,1,105,0Zm170.38-.19v1.15c3.79,0,7.59-.1,11.38,0,8.12.25,8.12.3,8.21,8.14a59.16,59.16,0,0,0,.06,6c.39,3.45-.91,4.66-4.42,4.6-10.9-.17-21.8-.06-32.71-.06,11.62,1.19,23.22,1.17,34.83,1.2,2.11,0,4.05.1,4-2.89-.07-5.14,0-10.28,0-15.42,0-1.8-.68-2.74-2.63-2.72C267,210.23,260.72,210.2,254.49,210.2ZM126.62,96.34c-3.52.38-2.71,1.7-2.26,3,2.48,7,4.92,14,7.41,21,.37,1,.61,2.43,2.27,1.85,1.41-.49,1.43-1.43,1-2.77-2.36-6.86-4.61-13.76-6.89-20.65C127.68,97.39,127.08,96.28,126.62,96.34ZM44,199.66l-.09-1.22c-4.14,0-8.28,0-12.41,0-13.71-.17-13.63-.18-13.32-14.1.06-2.88.73-4.06,3.88-4.13,5.95-.13,11.9-.77,17.85-1.2-6.62-.54-13.25-.5-19.87-.56-2.17,0-3.42.52-3.37,3,.12,5.14.05,10.29,0,15.43,0,1.8.65,2.77,2.59,2.77C27.51,199.64,35.75,199.66,44,199.66Zm-6.34,11.85,0-1.33c-6,0-11.94.09-17.9-.05-2.51-.06-3.13,1-3.09,3.26.1,4.81.19,9.62,0,14.42-.08,2.62.77,3.39,3.41,3.36,11.79-.15,23.57-.07,35.36-.07-8-.89-15.9-.83-23.85-.9-13.92-.12-13.83-.15-13.54-14.08.07-3.16,1.08-4.63,4.22-4.62C27.39,211.53,32.52,211.51,37.65,211.51ZM108.52,97.9l14.39,43.32C120.26,126,115,111.7,108.52,97.9Zm-6.8,42.46c-.48-3-2-5-5.19-4.93a4.45,4.45,0,0,0-4.8,4.6,4.63,4.63,0,0,0,4.76,5.23C99.53,145.39,101.18,143.28,101.72,140.36Zm58.84,5.74-.84-.55q-4.23,14.32-8.47,28.66l1.36.37Zm59.44,20c2.63-1,5.62-2.31,6.36-4.58,1.18-3.62,2.83-3.08,5.37-1.79-1.86-1-3.65-4.85-5.39-1.55S221.65,163.14,220,166.14Zm25.82-65.22c-4-1.68-7.46-4.6-12-4.32A22.06,22.06,0,0,0,245.82,100.92Zm-47-41.73c-1.74.31-2.71,1.36-2.51,3.1A2.47,2.47,0,0,0,199,64.65a2.53,2.53,0,0,0,2.47-3.07C201.33,60,200.29,59.33,198.81,59.19Zm16.06-1.25a2.76,2.76,0,0,0-2.53,3,2.41,2.41,0,0,0,2.41,2.54,2.48,2.48,0,0,0,2.77-2.68A2.69,2.69,0,0,0,214.87,57.94Zm15.47,4A2.57,2.57,0,0,0,233,59.09a2.28,2.28,0,0,0-2.62-2.32c-1.71.1-2.81,1-2.73,2.81C227.75,61.1,228.82,61.84,230.34,61.93Zm-44.68-.08c1.67-.25,2.68-1.3,2.48-2.94A2.52,2.52,0,0,0,185,56.64a2.4,2.4,0,0,0-2.3,2.63A2.64,2.64,0,0,0,185.66,61.85ZM56.86,167.25c0,2,0,3.92,0,5.88,0,1,.13,2.05,1.49,2.07.63,0,1.48.05,1.87-.32,1-.93,0-1.82-.49-2.5A31.13,31.13,0,0,1,56.86,167.25Zm163.37-21.17c.56-6.08-3.87-6.08-6.58-7.6-2-1.14-2.14-.94-4.08.88C214.22,139,217.92,140.36,220.23,146.08Z"/></g></g></svg>