<?xml version="1.0" encoding="utf-8"?>
<!-- Generator: Adobe Illustrator 24.0.3, SVG Export Plug-In . SVG Version: 6.00 Build 0)  -->
<svg version="1.1" id="Layer_1" xmlns="http://www.w3.org/2000/svg" xmlns:xlink="http://www.w3.org/1999/xlink" x="0px" y="0px"
	 viewBox="0 0 318.8 318.8" style="enable-background:new 0 0 318.8 318.8;" xml:space="preserve">
<path d="M101.5,59.2c-1.2-0.5-2.6-0.9-3.5-1.7c-2.5-2.3-1.9-4.9,1.3-6.1c9.3-3.3,18.7-6.6,28.1-9.9c3.5-1.2,6.7,1.3,5.1,4.4
	c-1.2,2.3-0.4,3.8,0.2,5.5c5.6,16.1,11.4,32.1,17,48.3c1,2.9,2.4,4.1,5.7,4.1c11.8-0.2,23.6-0.1,35.4-0.1c3.3,0,6.1-0.4,3.3-4.8
	c-1-1.5-0.6-3.1-0.1-4.8c3.4-12.3,6.1-24.7,14.7-34.9c4-4.7,5.9-10.7,6.7-16.9c0.6-4.8,2.7-9.1,5-13.4c1.5-2.8,3.8-3,6.3-2.7
	c3,0.4,1.7,2.9,1.7,4.3c0,4.3,2.2,6.1,6.1,6.2c10.1,0.3,19.7,2.2,28.9,6.5c2.3,1.1,4.8,1.3,7.3,0.4c3.9-1.4,3.8,0.8,3.4,3.5
	c0,0.3-0.2,0.6-0.3,0.9C265,63,262.3,80.5,253.7,95.5c-2.4,4.1-4.2,8.6-6.3,12.9c4.1,1.6,6.8,0.5,9.5-3c2.8-3.6,7.1-5.6,12.5-7
	c-2.3,4.6-4.7,8.1-5.7,12.3c-0.5,2.1-0.1,3.1,1.8,3.8c2.2,0.8,4.3,1.7,6.5,2.5c8.4,3.3,9.2,2.9,12.6-5.4c0.6-1.5,1.1-3.1,1.9-5.4
	c3.2,5,4.9,10.5,2.9,14.8c-1.3,2.7-1.9,6.4-4.4,8.6c-3.3,2.9-2.6,6.4-1.7,9.8c0.7,2.9,0.4,6,2.1,9.1c6.2-6.4,12.2-12.7,17.6-19.6
	c0.9-1.2,1.7-2.3,3.2-2.9c1.3-0.5,2.2-0.4,3.1,0.7c0.7,0.9,0.8,1.8-0.2,2.6c-1.3,1.1-1.2,3-2.8,4c-7.7,4.7-12.2,12.5-18.5,18.6
	c-1.8,1.8-1.9,3.7-1.5,5.9c2.3,13.4,4.5,26.8,6.8,40.2c0.2,1.1,0,3,1.1,3c5.2,0.3,3.7,4.2,3.6,6.9c-0.3,7.6-0.3,15.2-0.5,22.8
	c-0.1,7.2,0.4,14.5,0.5,21.7c0.2,11.4-0.1,22.7,0.1,34.1c0.1,4.5-1.1,5.8-5.8,5.8c-75.8-0.2-151.5-0.1-227.3-0.1
	c-9.8,0-19.6-0.1-29.4,0.1c-3.1,0.1-4-0.9-3.9-3.9c0.2-6.6,0-13.3,0.1-19.9c0-1.5-0.6-3.3,1.5-4.3c1-0.5,0.8-1.6,0.5-2.6
	c-3.3-9.8-3.2-19.5,0-29.3c0.2-0.6,0.4-1.4,0.2-1.9c-4.8-8.5-0.9-17.7-2-26.5c-0.2-1.6,0.6-2.5,2.3-2.4c3,0.3,3.4-1.5,3.8-3.9
	c2.4-15.2,5-30.4,7.6-45.6c0.9-5.3-0.3-6.7-5.5-6.1c-1.3,0.1-2.7-0.4-4-0.1c-2.2,0.5-4.9,1.3-3,4.5c1.9,3.2-0.7,4.1-2.4,5.4
	c-1.9,1.6-3.8,1.1-5.2-0.7c-2.4-3.2-6.1-5.7-6.5-10.2c0.4-5.5,0.5-5.6,5.9-3.5c0.7,0.3,1.3,0.1,1.8-0.3c2.4-2,7-2,6.4-6.9
	c-0.2-1.5,1.3-2.6,2.4-3.6c6.2-5.4,13-9.3,21.3-11c4.9-1,9.8-0.2,15.5-1.1c-8.8-2.3-16.2,0-23.6,2.1c5.1-5.2,3.8-12.3,5.2-18.5
	c1.5-6.6,2.3-13.4,3.3-20.1c0.4-2.8,1.6-4,4.5-3.8c3.5,0.2,7,0.2,10.4,0c3.2-0.2,4,1.1,3.9,4.1c-0.2,6,0.1,11.9-0.1,17.9
	c-0.1,2.7,0.7,3.8,3.6,3.8c10.8-0.1,21.6-0.1,32.3,0c2.9,0,3.3-0.8,2.4-3.5c-3.8-10.9-7.3-21.9-11-32.9c-0.9-2.7-1.5-5.4-1.6-8.2
	c-1.1-4.9,1.6-6.8,5.9-7.8c4.3-1.1,8.5-2.7,12.7-4.3c4.4-1.8,8.5-3.4,9.7,3.7c1.5-1.8-1.2-3.3,0.4-4.5c1.5-1.1,1.3-2.1,0.4-3.3
	c-1.2-1.6-2.5-0.1-3.5,0.2c-7.3,2.5-14.6,5.1-21.9,7.7c-2.3,0.8-5.6,1.1-6.7,2.7C96.6,56,101.2,56.7,101.5,59.2z M123.2,186.6
	c-1.7-2-3.7-3.3-6.4-2.5c-2.9,0.8-2.1,3.3-2.2,5.4c-2.8-2.7-0.2-6.2-1.8-9.4c-3.8-7.7-7.2-15.5-13-22c-7.2-8-8.7-18.8-12.9-28.2
	c-0.4-0.9-0.3-2,0.7-2.6c0.8-0.5,1.7-0.6,2.1,0.3c2.9,5.9,9.4,10,8.7,17.7c-0.3,3,1.4,5.4,4.2,5.9c2.7,0.5,3.8,2.2,5.2,4.1
	c0.9,1.2,1.1,3.3,3.2,3.3c0.7-0.5,0.8-1.2,0.5-1.8c-1.7-3.5-3.5-6.8-1.5-11.1c0.8-1.8-0.7-4.6-3-5.1c-3.7-0.9-4.6-3.8-5.9-6.6
	c-1.4-3-3-5.9-4.2-9c-0.7-1.8-1.8-2.6-3.7-2.5c-4.5,0.1-8.9,0.2-13.4,0.2c-3.2,0-4.2,1.3-4.2,4.6c0.2,9.6,0.8,19.3-0.1,28.8
	c-1,10.3,3.8,17.9,9.4,25.5c1.3,3.4-0.3,5.3-3.1,7c-2.1,1.3-4.9,2.5-3.8,6c3.1-4.7,6.9-8.1,12.6-9c3.1,3.1,6.7,5.8,8.9,9.7
	c2.8,5.1,6.9,6.7,12.7,6.2c6.8-0.5,6.8-0.1,4.8-6.3c-0.4-1.2-0.6-2.6-0.9-3.8c1.1-5.8,1.1-5.8,7-4.4c0.1,0,0.2-0.2,0.3-0.3
	c1.4,2.9,2.8,5.8,4.1,8.7c3,6.8,4.2,7.4,12.2,5.1c-5.8-8.2-12.6-15.7-16.7-24.8c-0.6-1.2-1.4-2.8-3.4-1.5c-1.9,1.1-0.9,2.5-0.6,3.9
	C119.4,181.3,122.3,183.4,123.2,186.6z M136.2,179.9c-0.6-0.3-1.3-0.4-1.7-0.8c-1.7-1.8-3.5-2.8-5.4-0.6c-2,2.3-1.8,4.5,0.9,6.4
	c-0.1-2.1-1.8-4.5,0.7-5.9c2.1-1.2,3,1.4,4.5,2.2c0.4,0.2,1,0.2,1.4,0.3c0.4,2.6,2.5,4.2,3.7,6.3c0.5,0.8,1.5,1.7,2.5,1.2
	c1.3-0.5,0.6-1.6,0.3-2.5c-6.9-20.5-13.8-41.1-20.7-61.6c-0.4-1.3-1-2.4-2.7-2.4c-6.2,0-12.4,0-19.6,0c3.2,4.1,5.5,7.3,8,10.3
	c5.1,5.9,8.7,12.3,10.8,19.9c2,7.3,6,13.8,10.3,20.1C131,175.6,135.3,176,136.2,179.9z M165.5,264.2c41,0,82,0,123,0
	c1.2,0,2.3,0,3.5,0c1.3,0,2.9,0.1,2.8-1.9c-0.1-1.9-1.7-1.7-3-1.8c-0.8,0-1.7,0-2.5,0c-80.4,0-160.7,0-241.1,0c-2.7,0-5.3-0.1-8,0.1
	c-1.6,0.1-4.2-0.9-4.2,2c0,2.7,2.5,1.3,3.9,1.6c1.1,0.2,2.3,0,3.5,0C84.1,264.2,124.8,264.2,165.5,264.2z M174.2,171.7
	c0.3,0.1,0.7,0.1,1,0.2c4.4-15.4,8.7-30.9,13.1-46.3c0.7-2.5-0.1-3.2-2.5-3.2c-9.5,0.1-18.9,0.1-28.4,0c-3,0-3.8,0.9-2.7,3.7
	c1.9,5.1,3.5,10.3,5.3,15.5c0.4,1.2,0.5,3.3,2.1,2.9c3.4-0.7,3.4,1.9,4.1,3.7C168.9,156.1,171.6,163.9,174.2,171.7z M164.9,232.7
	c41.2,0,82.4,0,123.6-0.1c2.1,0,6,1.6,6-1.9c0-3-3.8-1.6-5.8-1.6c-55.1-0.1-110.3-0.1-165.4-0.1c-27.7,0-55.5,0-83.2,0
	c-1.5,0-3.8-0.9-4,1.6c-0.1,2.5,2.2,1.7,3.7,1.9c1,0.1,2,0,3,0C83.5,232.7,124.2,232.7,164.9,232.7z M231.5,50.1
	c-3,0.3-5.9,0.6-8.7,0.9c-4,0.5-6.1,2.9-6.7,6.8c-0.8,5.8,2.6,9.6,9.6,9.9c6.5,0.2,12.8,1.1,19,3.1c2.2,0.7,4.5,1,6.9,0.6
	c4.3-0.6,7.6-2.4,8.3-7.1c0.7-4.5-1.8-7.5-5.6-9C247,52.5,239.3,50.7,231.5,50.1z M206.4,190.5c9.3-9.7,14.6-22.3,25.2-31.3
	c6-5,9.3-13.2,14-19.8c3.4-4.7,3.1-9.5,1.5-14.6c-0.6-1.7-1.5-2.3-3.2-2.4c-2.2-0.1-3.7,0.2-4.8,2.4
	C228.2,146.8,217.3,168.6,206.4,190.5z M221.3,201.2c2.2,0,3,0.3,3.4,0c6.5-5.3,13.7-10,18.3-17.1c1.8-2.8,3.2-3.3,5.9-1.7
	c4.3,2.4,6.1,1.3,6.1-3.8c0.1-5.1,0-10.3,0-15.4c0-4.7,0-9.3,0-14C241.7,165.1,233.9,184.1,221.3,201.2z M101.6,267.5
	c36.8,1.9,73.4,2.2,110.1,0C175,267.5,138.3,267.5,101.6,267.5z M211.8,204.7c-37,0-74,0-110.9,0C137.8,207.4,174.8,206,211.8,204.7
	z M248.3,101.5c0.2,0,0.4,0,0.6,0c1.4-2.6,2.8-5.2,4.1-7.9c0.5-1.1,1.9-2.3,0.7-3.5c-0.9-0.9-2.2-0.4-3.3-0.1
	c-16.2,4.1-32.8,6.3-49.2,9.8c-2.6,0.6-2.7,0.5-3.6,2.5c17.5-3.1,35.4-5.8,53.7-10.1c-0.8,2.3-1.3,3.7-1.7,5.1
	C249.1,98.7,248.7,100.1,248.3,101.5z M128.1,75.9c-5.4-0.2-10.5,3.6-11.9,8.4c-0.3,0.9-0.9,1.9,0,2.8c0.9,0.9,1.9,0,2.7-0.3
	c3.8-1.2,7.5-2.4,11.2-3.8c2-0.8,5.9-0.8,5.7-2.8c-0.3-2.9-3.9-3.4-6.6-4.2C128.7,75.9,128.2,75.9,128.1,75.9z M118,94.5
	c3.8,4.1,7.6,5.5,12.1,4.4c4.4-1.1,7.2-3.8,8.6-8.1c0.8-2.5,0.3-3.5-2.5-2.6C130.5,90.3,124.7,92.2,118,94.5z M153,176.1
	c0.4,0.3,0.7,0.7,1.1,0.9c4.6,2.3,9.1,4.7,13.7,6.9c1,0.5,2.2,2,3.5,0.8c1.1-1.1,1-2.6,0.5-4.2C169.3,172.4,159.7,170.1,153,176.1z
	 M257.6,287.3c0,0.6,0.1,1.1,0.1,1.7c11,0,21.9-0.1,32.9,0c3,0,4.2-1,4.1-4c-0.2-4.5-0.2-9,0-13.4c0.2-3.2-1.1-4-4.1-3.9
	c-5.7,0.2-11.5,0-17.2,0c2.2,0.7,4.5,0.8,6.8,1.3c4.1,0.9,9.8-1.9,12.1,1.7c1.9,3.2,0.4,8.4,0.7,12.7c0.2,3.1-0.9,4-3.9,4
	C278.5,287.2,268.1,287.3,257.6,287.3z M161.5,195.8c0.8-0.2,2.6-0.6,4.3-1.2c1-0.4,2.5-0.8,2.2-2.2c-0.1-0.7-1.3-1.3-2.2-1.7
	c-4.5-2.3-9.2-4.5-13.7-6.8c-2.5-1.3-3.2-0.6-3,2.1C149.8,191.1,154.9,195.7,161.5,195.8z M269.5,52c1.2-1.7,2.8-3.6,1.8-5.3
	c-0.8-1.5-3.1-0.1-4.7-0.3c-1.5-0.1-3.1-0.2-4.4-0.8c-8.3-3.6-16.9-5.3-25.9-6.2c-9-0.9-9-1.3-10.4-10.4c0-0.2-0.4-0.3-0.8-0.6
	c-2.3,1.4-4,3.2-4.8,6.3c1.8-1,2-3.2,4-3.3c2.6,9.1,2.6,9.1,12.7,9.6c1.7,0.1,3.9-0.2,4.6,1.3c1.1,2.6,0.7,1.2,2.1,0.1
	c4-3,7.2,3.5,11.7,1.8c1-0.4,3.8,0.8,4.3,2.6c0.4,1.5-0.5,2.3,1.7,0.9C265.2,45.4,269.9,48.1,269.5,52z M264.6,225.7
	c8.6,0,17.2-0.1,25.8,0.1c3.3,0.1,4.4-1.1,4.2-4.3c-0.2-4.5-0.1-8.9-0.1-13.4c0-1.7,0-3.5-2.4-3.5c-6.5,0-13,0-19.5,0
	c2.5,0.8,5,0.9,7.5,1.1c13.3,1.1,13.2,1.1,12.8,14.7c-0.1,3.3-1.2,4.2-4.3,4.2C280.6,224.4,272.7,224.2,264.6,225.7z M78.4,288.9
	c0-0.5,0-0.9,0-1.4c-9.6,0-19.2,0.2-28.8-0.1c-4-0.1-9.7,1.8-11.8-1.3c-2-3-0.5-8.3-0.8-12.6c-0.3-3.6,1.4-4.5,4.6-4.5
	c4.9,0.1,9.9,0.2,15.2-1.4c-6.5,0-12.3,0-18.1,0c-2.1,0-3.4,0.5-3.3,3c0.2,5,0.1,10,0,14.9c-0.1,2.8,1.3,3.3,3.7,3.3
	C52.2,288.9,65.3,288.9,78.4,288.9z M102.9,236.4c34.9,1.7,70,1,105,0C172.9,236.4,137.9,236.4,102.9,236.4z M273.3,236.2
	c0,0.4,0,0.8,0,1.2c3.8,0,7.6-0.1,11.4,0c8.1,0.3,8.1,0.3,8.2,8.1c0,2-0.2,4,0.1,6c0.4,3.4-0.9,4.7-4.4,4.6
	c-10.9-0.2-21.8-0.1-32.7-0.1c11.6,1.2,23.2,1.2,34.8,1.2c2.1,0,4,0.1,4-2.9c-0.1-5.1,0-10.3,0-15.4c0-1.8-0.7-2.7-2.6-2.7
	C285.7,236.2,279.5,236.2,273.3,236.2z M145.4,122.4c-3.5,0.4-2.7,1.7-2.3,3c2.5,7,4.9,14,7.4,21c0.4,1,0.6,2.4,2.3,1.9
	c1.4-0.5,1.4-1.4,1-2.8c-2.4-6.9-4.6-13.8-6.9-20.6C146.5,123.4,145.8,122.3,145.4,122.4z M62.8,225.7c0-0.4-0.1-0.8-0.1-1.2
	c-4.1,0-8.3,0-12.4,0c-13.7-0.2-13.6-0.2-13.3-14.1c0.1-2.9,0.7-4.1,3.9-4.1c6-0.1,11.9-0.8,17.9-1.2c-6.6-0.5-13.3-0.5-19.9-0.6
	c-2.2,0-3.4,0.5-3.4,3c0.1,5.1,0,10.3,0,15.4c0,1.8,0.7,2.8,2.6,2.8C46.3,225.7,54.5,225.7,62.8,225.7z M56.4,237.5
	c0-0.4,0-0.9,0-1.3c-6,0-11.9,0.1-17.9,0c-2.5-0.1-3.1,1-3.1,3.3c0.1,4.8,0.2,9.6,0,14.4c-0.1,2.6,0.8,3.4,3.4,3.4
	c11.8-0.1,23.6-0.1,35.4-0.1c-8-0.9-15.9-0.8-23.9-0.9c-13.9-0.1-13.8-0.2-13.5-14.1c0.1-3.2,1.1-4.6,4.2-4.6
	C46.2,237.5,51.3,237.5,56.4,237.5z M127.3,123.9c4.8,14.4,9.6,28.9,14.4,43.3C139,152,133.8,137.7,127.3,123.9z M120.5,166.4
	c-0.5-3-2-5-5.2-4.9c-2.9,0-4.7,1.7-4.8,4.6c-0.2,3.2,1.8,5.1,4.8,5.2C118.3,171.4,120,169.3,120.5,166.4z M179.3,172.1
	c-0.3-0.2-0.6-0.4-0.8-0.5c-2.8,9.6-5.7,19.1-8.5,28.7c0.5,0.1,0.9,0.3,1.4,0.4C174,191.1,176.7,181.6,179.3,172.1z M238.8,192.1
	c2.6-1,5.6-2.3,6.4-4.6c1.2-3.6,2.8-3.1,5.4-1.8c-1.9-1-3.6-4.8-5.4-1.5C243.4,187.5,240.4,189.2,238.8,192.1z M264.6,126.9
	c-4-1.7-7.5-4.6-12-4.3C256.2,125.1,260.1,126.8,264.6,126.9z M217.6,85.2c-1.7,0.3-2.7,1.4-2.5,3.1c0.2,1.5,1.2,2.5,2.7,2.4
	c1.7-0.1,2.7-1.3,2.5-3.1C220.1,86,219.1,85.3,217.6,85.2z M233.6,84c-1.7,0.3-2.6,1.3-2.5,3c0,1.6,1,2.5,2.4,2.5
	c1.6,0.1,2.8-0.9,2.8-2.7C236.3,85.1,235.3,84.2,233.6,84z M249.1,87.9c1.8-0.1,2.7-1.2,2.7-2.8c-0.1-1.4-1-2.4-2.6-2.3
	c-1.7,0.1-2.8,1.1-2.7,2.8C246.5,87.1,247.6,87.8,249.1,87.9z M204.4,87.9c1.7-0.3,2.7-1.3,2.5-2.9c-0.2-1.6-1.5-2.5-3.1-2.3
	c-1.4,0.2-2.5,1.1-2.3,2.6C201.7,86.8,202.6,87.9,204.4,87.9z M75.6,193.3c0,2,0,3.9,0,5.9c0,1,0.1,2,1.5,2.1c0.6,0,1.5,0,1.9-0.3
	c1-0.9,0-1.8-0.5-2.5C77.3,196.8,76.5,195.1,75.6,193.3z M239,172.1c0.6-6.1-3.9-6.1-6.6-7.6c-2-1.1-2.1-0.9-4.1,0.9
	C233,165.1,236.7,166.4,239,172.1z"/>
<path d="M118.4,166.3c-0.2,1.7-1.2,2.8-2.9,2.8c-1.6,0-2.8-0.9-2.9-2.7c-0.1-1.8,1-2.7,2.7-2.8C117.2,163.5,117.9,164.7,118.4,166.3
	z"/>
</svg>
